<svg xmlns="http://www.w3.org/2000/svg" viewBox="0 0 128 128" role="img" aria-label="Django icon">
  <rect width="128" height="128" rx="24" fill="#0C4B33"/>
  <path d="M20 92V35h16v57H20zm34 0c-14.5 0-22-7.8-22-21.3 0-13.7 8-21.7 23-21.7 4.7 0 8.3.4 12 1.3V35h16v54.6c-6 1.7-11.8 2.4-19 2.4zm13-30.6c-2-.4-3.4-.5-5.2-.5-7.5 0-11.6 3.1-11.6 9.8 0 6.4 3.8 9.5 11.1 9.5 1.8 0 3.2-.1 5.7-.6V61.4zM96 49h16v31.2c0 10.8-.8 16-3.4 20.5-2.4 4.4-5.7 7.2-12.6 10.7l-14.8-7c6.9-3.2 10.2-5.7 12.2-9.6 2.1-4 2.7-8.7 2.7-20.1V49zm0-14h16v14H96V35z" fill="#fff"/>
</svg>
